<svg viewBox="0 0 65 35" xmlns="http://www.w3.org/2000/svg"><circle cx="22.7" cy="3.2" r="2.9"/><path d="M20.5 8.2h4.3c.2 0 .4.2.4.4v25.8c0 .2-.2.4-.4.4h-4.3c-.2 0-.4-.2-.4-.4V8.6c0-.2.2-.4.4-.4zM29.9.3h4.3c.2 0 .4.2.4.4v33.6c0 .2-.2.4-.4.4h-4.3c-.2 0-.4-.2-.4-.4V.7c0-.2.2-.4.4-.4zM15.7 8.2h-10V.7c0-.2-.2-.4-.4-.4H1C.8.3.6.5.6.7v20.7c0 7.3 6 13.3 13.3 13.3h1.8c.2 0 .4-.2.4-.4V30c0-.2-.2-.4-.4-.4h-1.8c-4.5 0-8.2-3.7-8.2-8.2v-8.2h10c.2 0 .4-.2.4-.4V8.5c0-.2-.2-.3-.4-.3zM60.5 12.1C55.3 7 47 7 41.8 12.1s-5.1 13.5 0 18.7 13.5 5.1 18.7 0c.9-.9 1.7-1.9 2.3-3.1 0-.1-.1-.2-.2-.2h-5.5l-.6.2c-3.4 3-8.6 2.6-11.6-.9-.9-1.1-1.6-2.4-1.8-3.8 0-.2.1-.3.3-.3H64c.2 0 .4-.2.4-.4v-.8c0-3.5-1.4-6.9-3.9-9.4zm-2.4 6h-14c-.2 0-.3-.1-.3-.3 1.4-2.7 4.2-4.4 7.2-4.4s5.8 1.7 7.2 4.4c0 .1 0 .2-.1.3z"/></svg>