<svg viewBox="0 0 19 19" xmlns="http://www.w3.org/2000/svg"><path clip-rule="evenodd" d="M12.9 16.3c-.2 0-.3.1-.3.3s.1.3.3.3.3-.1.3-.3-.1-.3-.3-.3zm1.9.3c0 1.1-.9 1.9-1.9 1.9s-1.9-.9-1.9-1.9c0-1.1.9-1.9 1.9-1.9 1.1 0 1.9.8 1.9 1.9zm-8.4-.3c-.2 0-.3.1-.3.3s.1.3.3.3.3-.1.3-.3-.1-.3-.3-.3zm1.9.3c0 1.1-.9 1.9-1.9 1.9-1.1 0-1.9-.9-1.9-1.9 0-1.1.9-1.9 1.9-1.9s1.9.8 1.9 1.9zM18.3 2L17 8.4c-.5 1.9-2.2 3.2-4.1 3.2H4.5v.1c.1.6.6 1.1 1.2 1.1h10v1.6h-10c-1.5 0-2.7-1.1-2.8-2.6l-.5-7.7c-.1-1.1-1-2-2.1-2H0V.5h.3C2.2.5 3.9 2 4 4l.4 6h8.5c1.2 0 2.2-.8 2.5-2l.8-4.4H4.5v-.2c-.1-.3-.2-.7-.3-1L3.9 2z" fill="#939598" fill-rule="evenodd"/></svg>